<svg id="svg" version="1.1" xmlns="http://www.w3.org/2000/svg" xmlns:xlink="http://www.w3.org/1999/xlink" width="400" height="400" viewBox="0, 0, 400,400"><g id="svgg"><path id="path0" d="M195.256 60.013 C 194.736 60.446,194.052 60.800,193.734 60.800 C 193.133 60.800,156.800 97.007,156.800 97.606 C 156.800 97.793,156.449 98.057,156.020 98.194 C 155.592 98.330,155.136 98.772,155.007 99.177 C 154.879 99.582,154.419 100.006,153.987 100.119 C 153.554 100.233,153.200 100.600,153.200 100.936 C 153.200 101.271,152.859 101.654,152.443 101.786 C 152.027 101.918,151.594 102.381,151.481 102.813 C 151.367 103.246,151.000 103.600,150.664 103.600 C 150.329 103.600,149.940 103.960,149.800 104.400 C 149.660 104.840,149.284 105.200,148.963 105.200 C 148.643 105.200,148.209 105.650,148.000 106.200 C 147.791 106.750,147.345 107.200,147.010 107.200 C 146.674 107.200,146.400 107.474,146.400 107.810 C 146.400 108.145,145.950 108.591,145.400 108.800 C 144.850 109.009,144.400 109.472,144.400 109.828 C 144.400 110.184,144.040 110.569,143.600 110.684 C 143.160 110.799,142.800 111.147,142.800 111.457 C 142.800 111.766,142.375 112.182,141.855 112.379 C 141.335 112.577,140.812 113.112,140.692 113.569 C 140.573 114.026,140.209 114.400,139.884 114.400 C 139.559 114.400,139.199 114.760,139.084 115.200 C 138.969 115.640,138.617 116.000,138.302 116.000 C 137.986 116.000,137.523 116.450,137.273 117.000 C 137.022 117.550,136.564 118.000,136.255 118.000 C 135.946 118.000,135.599 118.360,135.484 118.800 C 135.369 119.240,135.009 119.600,134.684 119.600 C 134.359 119.600,133.996 119.973,133.876 120.430 C 133.757 120.886,133.303 121.353,132.867 121.467 C 132.431 121.581,131.984 122.017,131.874 122.437 C 131.765 122.857,131.388 123.200,131.037 123.200 C 130.687 123.200,130.400 123.386,130.400 123.613 C 130.400 123.841,129.776 124.651,129.013 125.413 C 128.251 126.176,127.441 126.800,127.213 126.800 C 126.986 126.800,126.800 126.986,126.800 127.213 C 126.800 127.441,126.176 128.251,125.413 129.013 C 124.651 129.776,123.841 130.400,123.613 130.400 C 123.386 130.400,123.200 130.760,123.200 131.200 C 123.200 131.640,123.014 132.000,122.787 132.000 C 122.275 132.000,119.600 134.636,119.600 135.140 C 119.600 135.342,119.240 135.601,118.800 135.716 C 118.360 135.831,118.000 136.183,118.000 136.498 C 118.000 136.814,117.550 137.277,117.000 137.527 C 116.450 137.778,116.000 138.257,116.000 138.591 C 116.000 138.926,115.726 139.200,115.390 139.200 C 115.055 139.200,114.609 139.650,114.400 140.200 C 114.191 140.750,113.745 141.200,113.410 141.200 C 113.074 141.200,112.800 141.474,112.800 141.810 C 112.800 142.145,112.375 142.582,111.855 142.779 C 111.335 142.977,110.812 143.512,110.692 143.969 C 110.573 144.426,110.188 144.800,109.837 144.800 C 109.487 144.800,109.200 145.074,109.200 145.410 C 109.200 145.745,108.775 146.182,108.255 146.379 C 107.735 146.577,107.212 147.112,107.092 147.569 C 106.973 148.026,106.609 148.400,106.284 148.400 C 105.959 148.400,105.599 148.760,105.484 149.200 C 105.369 149.640,105.000 150.000,104.664 150.000 C 104.329 150.000,103.943 150.351,103.806 150.780 C 103.670 151.208,103.228 151.664,102.823 151.793 C 102.418 151.921,101.994 152.381,101.881 152.813 C 101.767 153.246,101.388 153.600,101.037 153.600 C 100.687 153.600,100.400 153.874,100.400 154.210 C 100.400 154.545,99.975 154.982,99.455 155.179 C 98.935 155.377,98.412 155.912,98.292 156.369 C 98.173 156.826,97.788 157.200,97.437 157.200 C 97.087 157.200,96.800 157.468,96.800 157.797 C 96.800 158.125,96.440 158.618,96.000 158.893 C 94.907 159.575,94.996 159.923,96.300 160.073 L 97.400 160.200 97.400 174.900 C 97.400 188.712,97.443 189.600,98.110 189.600 C 98.500 189.600,98.991 189.150,99.200 188.600 C 99.409 188.050,99.855 187.600,100.190 187.600 C 100.526 187.600,100.800 187.330,100.800 187.000 C 100.800 186.670,100.981 186.400,101.201 186.400 C 101.422 186.400,104.832 183.160,108.778 179.200 C 112.724 175.240,116.144 172.000,116.377 172.000 C 116.609 172.000,116.800 171.726,116.800 171.390 C 116.800 171.055,117.225 170.618,117.745 170.421 C 118.265 170.223,118.788 169.688,118.908 169.231 C 119.027 168.774,119.400 168.400,119.736 168.400 C 120.071 168.400,120.460 168.040,120.600 167.600 C 120.740 167.160,121.129 166.800,121.464 166.800 C 121.800 166.800,122.167 166.446,122.281 166.013 C 122.394 165.581,122.808 165.125,123.200 165.000 C 123.592 164.875,124.006 164.419,124.119 163.987 C 124.233 163.554,124.600 163.200,124.936 163.200 C 125.271 163.200,125.660 162.840,125.800 162.400 C 125.940 161.960,126.215 161.600,126.412 161.600 C 126.609 161.600,131.983 156.425,138.354 150.100 C 169.881 118.801,191.351 97.760,192.130 97.400 C 192.605 97.180,193.281 96.714,193.633 96.364 C 195.235 94.770,204.962 94.846,206.347 96.463 C 206.694 96.868,207.234 97.200,207.546 97.200 C 207.859 97.200,216.972 106.065,227.797 116.900 C 251.650 140.774,248.933 138.593,254.819 138.593 C 263.356 138.593,269.417 131.299,267.069 123.851 C 266.701 122.684,266.400 121.467,266.400 121.146 C 266.400 120.825,266.085 120.136,265.700 119.615 C 265.094 118.795,224.849 78.472,216.126 69.944 C 214.407 68.264,212.421 66.284,211.713 65.544 C 208.925 62.630,206.829 60.800,206.282 60.800 C 205.966 60.800,205.250 60.440,204.691 60.000 C 203.211 58.836,196.658 58.845,195.256 60.013 M93.200 161.587 C 93.200 162.475,94.193 162.315,94.557 161.369 C 94.700 160.996,94.504 160.800,93.987 160.800 C 93.471 160.800,93.200 161.071,93.200 161.587 M89.600 165.049 C 89.600 165.580,89.709 165.608,90.200 165.200 C 90.530 164.926,90.800 164.634,90.800 164.551 C 90.800 164.468,90.530 164.400,90.200 164.400 C 89.870 164.400,89.600 164.692,89.600 165.049 M84.400 170.249 C 84.400 170.780,84.509 170.808,85.000 170.400 C 85.330 170.126,85.600 169.834,85.600 169.751 C 85.600 169.668,85.330 169.600,85.000 169.600 C 84.670 169.600,84.400 169.892,84.400 170.249 M95.360 191.724 C 94.448 192.663,94.050 193.525,93.856 194.986 C 93.708 196.097,93.329 197.120,92.996 197.306 C 92.162 197.773,92.158 202.225,92.990 202.691 C 93.325 202.878,93.716 203.971,93.893 205.211 C 94.134 206.905,94.402 207.487,95.078 207.784 C 95.558 207.996,96.035 208.491,96.138 208.884 C 96.241 209.278,96.522 209.600,96.763 209.600 C 97.457 209.600,97.278 209.015,96.200 207.762 C 95.409 206.842,95.201 206.163,95.200 204.500 C 95.200 202.972,95.048 202.400,94.643 202.400 C 93.974 202.400,93.600 201.540,93.600 200.000 C 93.600 198.460,93.974 197.600,94.643 197.600 C 95.046 197.600,95.200 197.037,95.200 195.558 C 95.200 193.963,95.419 193.255,96.200 192.327 C 98.010 190.176,97.336 189.692,95.360 191.724 M97.400 225.100 L 97.400 239.800 96.300 239.927 C 94.996 240.077,94.907 240.425,96.000 241.107 C 96.440 241.382,96.800 241.875,96.800 242.203 C 96.800 242.533,97.158 242.800,97.600 242.800 C 98.117 242.800,98.400 243.067,98.400 243.553 C 98.400 243.979,98.761 244.401,99.230 244.524 C 99.686 244.643,100.157 245.114,100.276 245.570 C 100.396 246.027,100.759 246.400,101.084 246.400 C 101.409 246.400,101.767 246.754,101.881 247.187 C 101.994 247.619,102.418 248.079,102.823 248.207 C 103.228 248.336,103.664 248.772,103.793 249.177 C 103.921 249.582,104.381 250.006,104.813 250.119 C 105.246 250.233,105.600 250.612,105.600 250.963 C 105.600 251.313,105.874 251.600,106.210 251.600 C 106.545 251.600,106.982 252.025,107.179 252.545 C 107.377 253.065,107.912 253.588,108.369 253.708 C 108.826 253.827,109.200 254.212,109.200 254.563 C 109.200 254.913,109.474 255.200,109.810 255.200 C 110.145 255.200,110.582 255.625,110.779 256.145 C 110.977 256.665,111.512 257.188,111.969 257.308 C 112.426 257.427,112.800 257.812,112.800 258.163 C 112.800 258.513,113.074 258.800,113.410 258.800 C 113.745 258.800,114.191 259.250,114.400 259.800 C 114.609 260.350,115.055 260.800,115.390 260.800 C 115.726 260.800,116.000 261.074,116.000 261.409 C 116.000 261.743,116.435 262.215,116.966 262.457 C 117.497 262.699,118.021 263.236,118.129 263.649 C 118.237 264.062,118.612 264.400,118.963 264.400 C 119.313 264.400,119.600 264.586,119.600 264.813 C 119.600 265.351,122.249 268.000,122.787 268.000 C 123.014 268.000,123.200 268.360,123.200 268.800 C 123.200 269.240,123.386 269.600,123.613 269.600 C 124.151 269.600,126.800 272.249,126.800 272.787 C 126.800 273.014,126.986 273.200,127.213 273.200 C 127.751 273.200,130.400 275.849,130.400 276.387 C 130.400 276.614,130.687 276.800,131.037 276.800 C 131.388 276.800,131.765 277.143,131.874 277.563 C 131.984 277.983,132.431 278.419,132.867 278.533 C 133.303 278.647,133.757 279.114,133.876 279.570 C 133.996 280.027,134.359 280.400,134.684 280.400 C 135.009 280.400,135.365 280.743,135.474 281.163 C 135.584 281.583,136.031 282.019,136.467 282.133 C 136.903 282.247,137.353 282.697,137.467 283.133 C 137.581 283.569,138.017 284.016,138.437 284.126 C 138.857 284.235,139.200 284.612,139.200 284.963 C 139.200 285.313,139.474 285.600,139.810 285.600 C 140.145 285.600,140.582 286.025,140.779 286.545 C 140.977 287.065,141.512 287.588,141.969 287.708 C 142.426 287.827,142.800 288.212,142.800 288.563 C 142.800 288.913,143.074 289.200,143.410 289.200 C 143.745 289.200,144.182 289.625,144.379 290.145 C 144.577 290.665,145.112 291.188,145.569 291.308 C 146.026 291.427,146.400 291.812,146.400 292.163 C 146.400 292.513,146.674 292.800,147.010 292.800 C 147.345 292.800,147.791 293.250,148.000 293.800 C 148.209 294.350,148.643 294.800,148.963 294.800 C 149.284 294.800,149.654 295.141,149.786 295.557 C 149.918 295.973,150.381 296.406,150.813 296.519 C 151.246 296.633,151.600 297.000,151.600 297.336 C 151.600 297.671,151.960 298.060,152.400 298.200 C 152.840 298.340,153.200 298.729,153.200 299.064 C 153.200 299.400,153.554 299.767,153.987 299.881 C 154.419 299.994,154.879 300.418,155.007 300.823 C 155.136 301.228,155.592 301.670,156.020 301.806 C 156.449 301.943,156.800 302.207,156.800 302.394 C 156.800 302.987,193.130 339.200,193.724 339.200 C 194.037 339.200,194.750 339.560,195.309 340.000 C 196.159 340.668,196.932 340.800,200.000 340.800 C 203.068 340.800,203.841 340.668,204.691 340.000 C 205.250 339.560,205.987 339.200,206.328 339.200 C 206.904 339.200,208.564 337.737,211.711 334.456 C 212.420 333.716,214.408 331.736,216.129 330.056 C 217.850 328.375,229.820 316.470,242.729 303.600 L 266.200 280.200 266.951 276.973 C 269.017 268.101,263.785 261.393,254.809 261.407 C 248.930 261.416,251.664 259.221,227.787 283.100 C 216.952 293.935,207.807 302.800,207.464 302.800 C 207.121 302.800,206.672 303.101,206.466 303.468 C 205.649 304.928,195.080 305.076,193.645 303.648 C 193.287 303.292,192.603 302.820,192.125 302.600 C 191.381 302.258,173.188 284.412,135.766 247.318 C 130.817 242.413,126.608 238.400,126.411 238.400 C 126.215 238.400,125.946 238.059,125.814 237.643 C 125.682 237.227,125.219 236.794,124.787 236.681 C 124.354 236.567,124.000 236.200,124.000 235.864 C 124.000 235.529,123.659 235.146,123.243 235.014 C 122.827 234.882,122.394 234.419,122.281 233.987 C 122.167 233.554,121.800 233.200,121.464 233.200 C 121.129 233.200,120.740 232.840,120.600 232.400 C 120.460 231.960,120.084 231.600,119.763 231.600 C 119.443 231.600,119.018 231.175,118.821 230.655 C 118.623 230.135,118.088 229.612,117.631 229.492 C 117.174 229.373,116.800 228.988,116.800 228.637 C 116.800 228.287,116.609 228.000,116.375 228.000 C 116.142 228.000,112.005 224.040,107.182 219.200 C 102.359 214.360,98.185 210.400,97.907 210.400 C 97.507 210.400,97.400 213.504,97.400 225.100 M84.400 229.800 C 84.400 230.130,84.692 230.400,85.049 230.400 C 85.580 230.400,85.608 230.291,85.200 229.800 C 84.926 229.470,84.634 229.200,84.551 229.200 C 84.468 229.200,84.400 229.470,84.400 229.800 M89.600 235.000 C 89.600 235.330,89.892 235.600,90.249 235.600 C 90.780 235.600,90.808 235.491,90.400 235.000 C 90.126 234.670,89.834 234.400,89.751 234.400 C 89.668 234.400,89.600 234.670,89.600 235.000 M93.200 238.413 C 93.200 238.929,93.471 239.200,93.987 239.200 C 94.875 239.200,94.715 238.207,93.769 237.843 C 93.396 237.700,93.200 237.896,93.200 238.413 " stroke="none" fill="#3c9ae3" fill-rule="evenodd"></path><path id="path1" d="M287.981 151.156 C 283.003 152.775,279.200 158.251,279.200 163.800 C 279.200 169.195,279.969 170.278,292.975 183.200 C 303.596 193.752,304.000 194.363,304.000 199.852 C 304.000 205.563,303.749 205.944,292.591 217.200 C 287.465 222.370,282.770 227.208,282.157 227.951 C 276.884 234.344,278.732 243.429,286.200 247.823 C 290.138 250.140,298.018 249.218,300.854 246.108 C 301.209 245.719,309.899 237.030,320.164 226.800 C 341.665 205.375,341.361 205.755,341.385 200.170 C 341.410 194.163,342.004 194.919,319.793 172.673 C 308.034 160.895,299.708 152.867,298.532 152.173 C 296.478 150.960,290.389 150.373,287.981 151.156 M192.600 159.034 C 191.500 159.353,189.700 159.772,188.600 159.966 C 186.716 160.297,182.311 161.956,181.705 162.562 C 181.553 162.714,180.702 163.194,179.814 163.628 C 177.656 164.684,176.985 165.110,174.400 167.060 C 171.154 169.509,165.200 176.016,165.200 177.115 C 165.200 177.313,164.840 177.802,164.400 178.200 C 163.960 178.598,163.600 179.142,163.600 179.408 C 163.600 179.674,163.251 180.336,162.825 180.878 C 162.398 181.420,161.927 182.389,161.777 183.032 C 161.627 183.674,161.283 184.560,161.011 185.000 C 158.700 188.743,157.389 203.434,158.967 207.905 C 159.283 208.801,159.669 210.403,159.824 211.467 C 159.980 212.530,160.419 214.030,160.799 214.800 C 161.179 215.570,162.010 217.274,162.645 218.587 C 166.197 225.927,174.983 235.024,180.056 236.614 C 180.575 236.777,181.429 237.245,181.954 237.655 C 182.479 238.065,183.204 238.400,183.565 238.400 C 183.926 238.400,184.577 238.647,185.011 238.949 C 189.707 242.216,208.021 242.359,214.079 239.177 C 214.893 238.750,215.793 238.400,216.079 238.399 C 220.213 238.392,232.518 227.620,236.040 220.924 C 236.707 219.656,237.398 218.434,237.574 218.209 C 237.751 217.984,238.126 217.080,238.409 216.200 C 238.691 215.320,239.144 214.240,239.417 213.800 C 239.690 213.360,240.036 212.130,240.186 211.067 C 240.336 210.003,240.716 208.406,241.030 207.516 C 242.366 203.728,241.573 192.925,239.523 187.000 C 239.295 186.340,238.831 184.990,238.493 184.000 C 238.155 183.010,237.636 181.916,237.339 181.569 C 237.043 181.221,236.800 180.765,236.800 180.555 C 236.800 177.452,222.480 163.200,219.362 163.200 C 219.107 163.200,218.683 162.942,218.421 162.626 C 218.159 162.310,217.372 161.930,216.672 161.783 C 215.973 161.635,214.860 161.196,214.200 160.808 C 213.540 160.419,212.010 159.988,210.800 159.849 C 209.590 159.710,207.880 159.335,207.000 159.016 C 204.820 158.224,195.351 158.236,192.600 159.034 M204.972 178.840 C 221.967 183.886,227.207 202.023,215.477 215.200 C 214.018 216.839,208.638 220.358,207.552 220.384 C 207.196 220.393,205.777 220.760,204.400 221.200 C 203.023 221.640,201.043 222.000,200.000 222.000 C 198.957 222.000,196.977 221.640,195.600 221.200 C 194.223 220.760,192.847 220.400,192.542 220.400 C 191.210 220.400,187.101 217.748,184.677 215.323 C 176.316 206.963,176.111 193.190,184.227 185.101 C 190.185 179.161,198.055 176.786,204.972 178.840 " stroke="none" fill="#f36a6d" fill-rule="evenodd"></path><path id="path2" d="M0.000 200.000 L 0.000 400.000 200.000 400.000 L 400.000 400.000 400.000 200.000 L 400.000 0.000 200.000 0.000 L 0.000 0.000 0.000 200.000 M206.295 59.465 C 209.610 61.387,267.200 119.332,267.200 120.745 C 267.200 121.117,267.515 121.867,267.900 122.411 C 268.844 123.744,268.885 128.995,267.963 130.418 C 267.613 130.958,267.210 131.872,267.068 132.449 C 266.844 133.360,264.557 135.967,262.153 138.053 C 260.591 139.408,254.929 140.503,252.850 139.851 C 251.833 139.532,250.510 139.163,249.910 139.030 C 247.886 138.584,246.212 137.033,226.665 117.496 C 215.937 106.773,206.972 98.000,206.743 98.000 C 206.514 98.000,205.869 97.640,205.309 97.200 C 204.436 96.513,203.686 96.400,200.000 96.400 C 196.314 96.400,195.564 96.513,194.691 97.200 C 194.131 97.640,193.477 98.000,193.236 98.000 C 192.646 98.000,98.000 192.442,98.000 193.030 C 98.000 193.284,97.600 194.000,97.112 194.621 C 95.782 196.312,95.782 203.688,97.112 205.379 C 97.600 206.000,98.000 206.715,98.000 206.968 C 98.000 207.554,192.650 302.000,193.237 302.000 C 193.477 302.000,194.131 302.360,194.691 302.800 C 196.200 303.987,203.800 303.987,205.309 302.800 C 205.869 302.360,206.508 302.000,206.730 302.000 C 206.952 302.000,215.920 293.225,226.660 282.500 C 246.248 262.939,247.894 261.415,249.910 260.970 C 250.510 260.837,251.868 260.456,252.928 260.123 C 254.493 259.631,255.172 259.605,256.528 259.983 C 257.448 260.239,258.914 260.627,259.787 260.846 C 260.660 261.064,261.718 261.548,262.140 261.922 C 264.685 264.176,266.845 266.643,267.068 267.551 C 267.210 268.128,267.613 269.042,267.963 269.582 C 268.863 270.971,268.849 276.622,267.942 278.000 C 267.580 278.550,267.150 279.450,266.988 280.000 C 266.552 281.474,208.694 339.150,206.206 340.590 C 203.220 342.318,196.782 342.319,193.794 340.591 C 191.456 339.239,61.133 208.948,60.171 207.000 C 59.845 206.340,59.316 205.350,58.995 204.800 C 58.188 203.417,58.188 196.583,58.995 195.200 C 59.316 194.650,59.845 193.660,60.171 193.000 C 60.976 191.370,191.386 60.809,193.400 59.617 C 196.774 57.621,202.988 57.548,206.295 59.465 M298.532 152.173 C 299.708 152.867,308.034 160.895,319.793 172.673 C 342.004 194.919,341.410 194.163,341.385 200.170 C 341.361 205.755,341.665 205.375,320.164 226.800 C 309.899 237.030,301.209 245.719,300.854 246.108 C 298.018 249.218,290.138 250.140,286.200 247.823 C 278.732 243.429,276.884 234.344,282.157 227.951 C 282.770 227.208,287.465 222.370,292.591 217.200 C 303.749 205.944,304.000 205.563,304.000 199.852 C 304.000 194.363,303.596 193.752,292.975 183.200 C 279.969 170.278,279.200 169.195,279.200 163.800 C 279.200 153.954,290.270 147.296,298.532 152.173 M207.000 159.016 C 207.880 159.335,209.590 159.710,210.800 159.849 C 212.010 159.988,213.540 160.419,214.200 160.808 C 214.860 161.196,215.973 161.635,216.672 161.783 C 217.372 161.930,218.159 162.310,218.421 162.626 C 218.683 162.942,219.107 163.200,219.362 163.200 C 222.480 163.200,236.800 177.452,236.800 180.555 C 236.800 180.765,237.043 181.221,237.339 181.569 C 237.636 181.916,238.155 183.010,238.493 184.000 C 238.831 184.990,239.295 186.340,239.523 187.000 C 241.573 192.925,242.366 203.728,241.030 207.516 C 240.716 208.406,240.336 210.003,240.186 211.067 C 240.036 212.130,239.690 213.360,239.417 213.800 C 239.144 214.240,238.691 215.320,238.409 216.200 C 238.126 217.080,237.751 217.984,237.574 218.209 C 237.398 218.434,236.707 219.656,236.040 220.924 C 232.518 227.620,220.213 238.392,216.079 238.399 C 215.793 238.400,214.893 238.750,214.079 239.177 C 208.021 242.359,189.707 242.216,185.011 238.949 C 184.577 238.647,183.926 238.400,183.565 238.400 C 183.204 238.400,182.479 238.065,181.954 237.655 C 181.429 237.245,180.575 236.777,180.056 236.614 C 174.983 235.024,166.197 225.927,162.645 218.587 C 162.010 217.274,161.179 215.570,160.799 214.800 C 160.419 214.030,159.980 212.530,159.824 211.467 C 159.669 210.403,159.283 208.801,158.967 207.905 C 157.389 203.434,158.700 188.743,161.011 185.000 C 161.283 184.560,161.627 183.674,161.777 183.032 C 161.927 182.389,162.398 181.420,162.825 180.878 C 163.251 180.336,163.600 179.674,163.600 179.408 C 163.600 179.142,163.960 178.598,164.400 178.200 C 164.840 177.802,165.200 177.313,165.200 177.115 C 165.200 176.016,171.154 169.509,174.400 167.060 C 176.985 165.110,177.656 164.684,179.814 163.628 C 180.702 163.194,181.553 162.714,181.705 162.562 C 182.311 161.956,186.716 160.297,188.600 159.966 C 189.700 159.772,191.500 159.353,192.600 159.034 C 195.351 158.236,204.820 158.224,207.000 159.016 M194.800 178.879 C 179.383 183.653,173.089 201.292,182.580 213.123 C 185.107 216.273,190.757 220.400,192.542 220.400 C 192.847 220.400,194.223 220.760,195.600 221.200 C 196.977 221.640,198.957 222.000,200.000 222.000 C 201.043 222.000,203.023 221.640,204.400 221.200 C 205.777 220.760,207.196 220.393,207.552 220.384 C 208.638 220.358,214.018 216.839,215.477 215.200 C 223.155 206.575,223.858 196.377,217.419 187.005 C 212.801 180.283,202.368 176.535,194.800 178.879 " stroke="none" fill="#fcfcfc" fill-rule="evenodd"></path><path id="path3" d="M194.400 59.835 C 193.019 60.583,107.356 145.845,94.914 158.855 C 94.206 159.595,93.439 160.380,93.208 160.600 C 83.669 169.701,60.800 193.405,60.800 194.192 C 60.800 194.762,60.466 195.351,60.000 195.600 C 58.786 196.250,58.786 203.750,60.000 204.400 C 60.466 204.649,60.800 205.238,60.800 205.808 C 60.800 206.595,83.669 230.299,93.208 239.400 C 93.439 239.620,94.206 240.403,94.914 241.141 C 109.704 256.561,193.010 339.404,194.521 340.195 C 197.359 341.680,202.648 341.656,205.560 340.145 C 207.334 339.225,222.256 324.982,224.388 322.175 C 225.078 321.267,218.918 327.214,214.479 331.741 C 212.786 333.468,211.167 335.088,210.881 335.341 C 210.596 335.593,209.606 336.564,208.681 337.498 C 207.757 338.433,206.709 339.198,206.354 339.198 C 205.999 339.199,205.250 339.560,204.691 340.000 C 203.198 341.174,196.802 341.174,195.309 340.000 C 194.750 339.560,194.037 339.200,193.724 339.200 C 193.130 339.200,156.800 302.987,156.800 302.394 C 156.800 302.207,156.449 301.943,156.020 301.806 C 155.592 301.670,155.130 301.208,154.994 300.780 C 154.857 300.351,154.471 300.000,154.136 300.000 C 153.800 300.000,153.433 299.646,153.319 299.213 C 153.206 298.781,152.792 298.325,152.400 298.200 C 152.008 298.075,151.594 297.619,151.481 297.187 C 151.367 296.754,151.000 296.400,150.664 296.400 C 150.329 296.400,149.940 296.040,149.800 295.600 C 149.660 295.160,149.284 294.800,148.963 294.800 C 148.643 294.800,148.209 294.350,148.000 293.800 C 147.791 293.250,147.345 292.800,147.010 292.800 C 146.674 292.800,146.400 292.526,146.400 292.190 C 146.400 291.855,145.975 291.418,145.455 291.221 C 144.935 291.023,144.412 290.488,144.292 290.031 C 144.173 289.574,143.788 289.200,143.437 289.200 C 143.087 289.200,142.800 288.926,142.800 288.590 C 142.800 288.255,142.375 287.818,141.855 287.621 C 141.335 287.423,140.812 286.888,140.692 286.431 C 140.573 285.974,140.209 285.600,139.884 285.600 C 139.559 285.600,139.199 285.240,139.084 284.800 C 138.969 284.360,138.609 284.000,138.284 284.000 C 137.959 284.000,137.596 283.627,137.476 283.170 C 137.357 282.714,136.903 282.247,136.467 282.133 C 136.031 282.019,135.584 281.583,135.474 281.163 C 135.365 280.743,135.009 280.400,134.684 280.400 C 134.359 280.400,133.996 280.027,133.876 279.570 C 133.757 279.114,133.303 278.647,132.867 278.533 C 132.431 278.419,131.984 277.983,131.874 277.563 C 131.765 277.143,131.388 276.800,131.037 276.800 C 130.687 276.800,130.400 276.614,130.400 276.387 C 130.400 275.849,127.751 273.200,127.213 273.200 C 126.986 273.200,126.800 273.014,126.800 272.787 C 126.800 272.249,124.151 269.600,123.613 269.600 C 123.386 269.600,123.200 269.240,123.200 268.800 C 123.200 268.360,123.014 268.000,122.787 268.000 C 122.275 268.000,119.600 265.364,119.600 264.860 C 119.600 264.658,119.240 264.399,118.800 264.284 C 118.360 264.169,118.000 263.817,118.000 263.502 C 118.000 263.186,117.550 262.723,117.000 262.473 C 116.450 262.222,116.000 261.743,116.000 261.409 C 116.000 261.074,115.726 260.800,115.390 260.800 C 115.055 260.800,114.609 260.350,114.400 259.800 C 114.191 259.250,113.745 258.800,113.410 258.800 C 113.074 258.800,112.800 258.513,112.800 258.163 C 112.800 257.812,112.426 257.427,111.969 257.308 C 111.512 257.188,110.977 256.665,110.779 256.145 C 110.582 255.625,110.145 255.200,109.810 255.200 C 109.474 255.200,109.200 254.913,109.200 254.563 C 109.200 254.212,108.826 253.827,108.369 253.708 C 107.912 253.588,107.377 253.065,107.179 252.545 C 106.982 252.025,106.545 251.600,106.210 251.600 C 105.874 251.600,105.600 251.313,105.600 250.963 C 105.600 250.612,105.246 250.233,104.813 250.119 C 104.381 250.006,103.921 249.582,103.793 249.177 C 103.664 248.772,103.208 248.330,102.780 248.194 C 102.351 248.057,102.000 247.671,102.000 247.336 C 102.000 247.000,101.657 246.635,101.237 246.526 C 100.817 246.416,100.381 245.969,100.267 245.533 C 100.153 245.097,99.686 244.643,99.230 244.524 C 98.761 244.401,98.400 243.979,98.400 243.553 C 98.400 243.067,98.117 242.800,97.600 242.800 C 97.158 242.800,96.800 242.533,96.800 242.203 C 96.800 241.875,96.440 241.382,96.000 241.107 C 94.907 240.425,94.996 240.077,96.300 239.927 L 97.400 239.800 97.400 225.100 C 97.400 213.504,97.507 210.400,97.907 210.400 C 98.185 210.400,102.359 214.360,107.182 219.200 C 112.005 224.040,116.142 228.000,116.375 228.000 C 116.609 228.000,116.800 228.287,116.800 228.637 C 116.800 228.988,117.174 229.373,117.631 229.492 C 118.088 229.612,118.623 230.135,118.821 230.655 C 119.018 231.175,119.443 231.600,119.763 231.600 C 120.084 231.600,120.454 231.941,120.586 232.357 C 120.718 232.773,121.181 233.206,121.613 233.319 C 122.046 233.433,122.400 233.800,122.400 234.136 C 122.400 234.471,122.760 234.860,123.200 235.000 C 123.640 235.140,124.000 235.529,124.000 235.864 C 124.000 236.200,124.354 236.567,124.787 236.681 C 125.219 236.794,125.682 237.227,125.814 237.643 C 125.946 238.059,126.215 238.400,126.411 238.400 C 126.608 238.400,130.817 242.413,135.766 247.318 C 173.188 284.412,191.381 302.258,192.125 302.600 C 192.603 302.820,193.310 303.315,193.697 303.700 C 194.139 304.141,194.956 304.383,195.900 304.354 L 197.400 304.308 195.901 304.017 C 195.077 303.857,194.073 303.428,193.670 303.063 C 193.267 302.698,192.759 302.400,192.541 302.400 C 192.047 302.400,97.200 208.019,97.200 207.526 C 97.200 207.329,96.810 206.640,96.333 205.995 C 95.558 204.947,95.467 204.318,95.467 200.053 L 95.467 195.284 96.895 193.142 C 97.681 191.964,105.454 183.890,114.168 175.200 C 158.949 130.544,192.231 97.600,192.564 97.600 C 192.769 97.600,193.259 97.309,193.652 96.953 C 194.045 96.597,194.960 96.165,195.684 95.994 L 197.000 95.682 195.700 95.641 C 194.950 95.617,194.103 95.896,193.697 96.300 C 193.310 96.685,192.605 97.180,192.130 97.400 C 191.351 97.760,169.881 118.801,138.354 150.100 C 131.983 156.425,126.609 161.600,126.412 161.600 C 126.215 161.600,125.940 161.960,125.800 162.400 C 125.660 162.840,125.271 163.200,124.936 163.200 C 124.600 163.200,124.233 163.554,124.119 163.987 C 124.006 164.419,123.592 164.875,123.200 165.000 C 122.808 165.125,122.394 165.581,122.281 166.013 C 122.167 166.446,121.800 166.800,121.464 166.800 C 121.129 166.800,120.740 167.160,120.600 167.600 C 120.460 168.040,120.071 168.400,119.736 168.400 C 119.400 168.400,119.027 168.774,118.908 169.231 C 118.788 169.688,118.265 170.223,117.745 170.421 C 117.225 170.618,116.800 171.055,116.800 171.390 C 116.800 171.726,116.609 172.000,116.377 172.000 C 116.144 172.000,112.724 175.240,108.778 179.200 C 104.832 183.160,101.422 186.400,101.201 186.400 C 100.981 186.400,100.800 186.670,100.800 187.000 C 100.800 187.330,100.526 187.600,100.190 187.600 C 99.855 187.600,99.409 188.050,99.200 188.600 C 98.991 189.150,98.500 189.600,98.110 189.600 C 97.443 189.600,97.400 188.712,97.400 174.900 L 97.400 160.200 96.300 160.073 C 94.996 159.923,94.907 159.575,96.000 158.893 C 96.440 158.618,96.800 158.125,96.800 157.797 C 96.800 157.468,97.074 157.200,97.410 157.200 C 97.745 157.200,98.182 156.775,98.379 156.255 C 98.577 155.735,99.112 155.212,99.569 155.092 C 100.026 154.973,100.400 154.609,100.400 154.284 C 100.400 153.959,100.760 153.599,101.200 153.484 C 101.640 153.369,102.000 153.000,102.000 152.664 C 102.000 152.329,102.351 151.943,102.780 151.806 C 103.208 151.670,103.664 151.228,103.793 150.823 C 103.921 150.418,104.381 149.994,104.813 149.881 C 105.246 149.767,105.600 149.388,105.600 149.037 C 105.600 148.687,105.874 148.400,106.210 148.400 C 106.545 148.400,106.982 147.975,107.179 147.455 C 107.377 146.935,107.912 146.412,108.369 146.292 C 108.826 146.173,109.200 145.788,109.200 145.437 C 109.200 145.087,109.474 144.800,109.810 144.800 C 110.145 144.800,110.582 144.375,110.779 143.855 C 110.977 143.335,111.512 142.812,111.969 142.692 C 112.426 142.573,112.800 142.188,112.800 141.837 C 112.800 141.487,113.074 141.200,113.410 141.200 C 113.745 141.200,114.191 140.750,114.400 140.200 C 114.609 139.650,115.055 139.200,115.390 139.200 C 115.726 139.200,116.000 138.926,116.000 138.591 C 116.000 138.257,116.435 137.785,116.966 137.543 C 117.497 137.301,118.021 136.764,118.129 136.351 C 118.237 135.938,118.612 135.600,118.963 135.600 C 119.313 135.600,119.600 135.414,119.600 135.187 C 119.600 134.649,122.249 132.000,122.787 132.000 C 123.014 132.000,123.200 131.640,123.200 131.200 C 123.200 130.760,123.386 130.400,123.613 130.400 C 123.841 130.400,124.651 129.776,125.413 129.013 C 126.176 128.251,126.800 127.441,126.800 127.213 C 126.800 126.986,126.986 126.800,127.213 126.800 C 127.725 126.800,130.400 124.164,130.400 123.660 C 130.400 123.458,130.760 123.199,131.200 123.084 C 131.640 122.969,132.000 122.609,132.000 122.284 C 132.000 121.959,132.373 121.596,132.830 121.476 C 133.286 121.357,133.753 120.903,133.867 120.467 C 133.981 120.031,134.417 119.584,134.837 119.474 C 135.257 119.365,135.600 118.988,135.600 118.637 C 135.600 118.287,135.874 118.000,136.209 118.000 C 136.543 118.000,137.015 117.565,137.257 117.034 C 137.499 116.503,138.036 115.979,138.449 115.871 C 138.862 115.763,139.200 115.388,139.200 115.037 C 139.200 114.687,139.474 114.400,139.810 114.400 C 140.145 114.400,140.582 113.975,140.779 113.455 C 140.977 112.935,141.512 112.412,141.969 112.292 C 142.426 112.173,142.800 111.809,142.800 111.484 C 142.800 111.159,143.160 110.799,143.600 110.684 C 144.040 110.569,144.400 110.184,144.400 109.828 C 144.400 109.472,144.850 109.009,145.400 108.800 C 145.950 108.591,146.400 108.145,146.400 107.810 C 146.400 107.474,146.674 107.200,147.010 107.200 C 147.345 107.200,147.791 106.750,148.000 106.200 C 148.209 105.650,148.643 105.200,148.963 105.200 C 149.284 105.200,149.654 104.859,149.786 104.443 C 149.918 104.027,150.381 103.594,150.813 103.481 C 151.246 103.367,151.600 103.000,151.600 102.664 C 151.600 102.329,151.941 101.946,152.357 101.814 C 152.773 101.682,153.206 101.219,153.319 100.787 C 153.433 100.354,153.800 100.000,154.136 100.000 C 154.471 100.000,154.857 99.649,154.994 99.220 C 155.130 98.792,155.592 98.330,156.020 98.194 C 156.449 98.057,156.800 97.793,156.800 97.606 C 156.800 97.013,193.130 60.800,193.724 60.800 C 194.037 60.800,194.750 60.440,195.309 60.000 C 196.159 59.332,196.932 59.200,200.000 59.200 C 203.068 59.200,203.841 59.332,204.691 60.000 C 205.250 60.440,205.968 60.800,206.286 60.800 C 206.603 60.800,207.653 61.565,208.619 62.500 C 209.585 63.435,210.606 64.407,210.888 64.659 C 211.169 64.912,212.786 66.532,214.479 68.259 C 218.944 72.813,225.074 78.729,224.388 77.822 C 222.330 75.101,207.273 60.744,205.527 59.838 C 202.694 58.368,197.110 58.366,194.400 59.835 M229.234 82.949 C 230.205 83.911,231.945 85.647,233.100 86.806 C 234.255 87.966,235.200 88.803,235.200 88.668 C 235.200 88.341,228.051 81.200,227.723 81.200 C 227.583 81.200,228.263 81.987,229.234 82.949 M236.007 89.400 C 236.724 90.421,238.800 92.563,238.800 92.281 C 238.800 92.163,238.045 91.287,237.123 90.334 C 236.200 89.380,235.698 88.960,236.007 89.400 M239.618 93.000 C 240.375 94.039,241.990 95.649,243.000 96.371 C 243.485 96.717,243.407 96.546,242.800 95.937 C 239.910 93.031,239.092 92.276,239.618 93.000 M198.600 95.216 C 197.682 95.437,198.002 95.516,199.967 95.553 C 201.378 95.579,202.458 95.536,202.367 95.457 C 201.948 95.099,199.685 94.954,198.600 95.216 M204.012 95.969 C 206.340 96.425,207.441 97.428,227.400 117.278 C 244.636 134.420,248.852 138.433,249.578 138.386 C 249.700 138.378,249.280 137.973,248.645 137.486 C 248.010 136.999,238.631 127.735,227.802 116.900 C 216.974 106.065,207.859 97.200,207.546 97.200 C 207.234 97.200,206.670 96.840,206.293 96.400 C 205.815 95.842,205.153 95.614,204.104 95.646 L 202.600 95.692 204.012 95.969 M244.604 98.234 C 246.420 100.003,247.561 100.748,246.200 99.276 C 245.540 98.562,244.642 97.773,244.204 97.523 C 243.756 97.268,243.931 97.579,244.604 98.234 M248.110 101.725 C 248.720 102.305,249.690 103.280,250.266 103.890 C 250.919 104.584,251.145 104.700,250.867 104.200 C 250.375 103.315,248.535 101.512,247.600 100.999 C 247.270 100.817,247.499 101.144,248.110 101.725 M252.013 105.400 C 252.992 106.733,254.966 108.654,254.477 107.796 C 254.227 107.358,253.438 106.460,252.724 105.800 C 252.010 105.140,251.690 104.960,252.013 105.400 M255.618 109.000 C 256.375 110.039,257.990 111.649,259.000 112.371 C 259.485 112.717,259.407 112.546,258.800 111.937 C 255.910 109.031,255.092 108.276,255.618 109.000 M260.604 114.234 C 262.420 116.003,263.561 116.748,262.200 115.276 C 261.540 114.562,260.642 113.773,260.204 113.523 C 259.756 113.268,259.931 113.579,260.604 114.234 M264.800 118.477 C 264.800 118.587,265.160 119.093,265.600 119.600 C 266.040 120.107,266.400 120.343,266.400 120.123 C 266.400 119.904,266.040 119.398,265.600 119.000 C 265.160 118.602,264.800 118.366,264.800 118.477 M266.414 121.165 C 266.406 121.476,266.701 122.684,267.069 123.851 C 268.479 128.326,266.378 133.442,261.645 137.056 C 260.677 137.795,260.020 138.400,260.185 138.400 C 260.671 138.400,264.256 135.433,265.369 134.110 C 266.545 132.713,267.987 128.469,267.995 126.385 C 268.000 125.063,266.446 119.931,266.414 121.165 M257.700 138.676 C 258.085 138.776,258.715 138.776,259.100 138.676 C 259.485 138.575,259.170 138.493,258.400 138.493 C 257.630 138.493,257.315 138.575,257.700 138.676 M253.700 139.087 C 254.305 139.178,255.295 139.178,255.900 139.087 C 256.505 138.995,256.010 138.920,254.800 138.920 C 253.590 138.920,253.095 138.995,253.700 139.087 M94.557 161.369 C 94.193 162.315,93.200 162.475,93.200 161.587 C 93.200 161.071,93.471 160.800,93.987 160.800 C 94.504 160.800,94.700 160.996,94.557 161.369 M90.800 164.551 C 90.800 164.634,90.530 164.926,90.200 165.200 C 89.709 165.608,89.600 165.580,89.600 165.049 C 89.600 164.692,89.870 164.400,90.200 164.400 C 90.530 164.400,90.800 164.468,90.800 164.551 M85.600 169.751 C 85.600 169.834,85.330 170.126,85.000 170.400 C 84.509 170.808,84.400 170.780,84.400 170.249 C 84.400 169.892,84.670 169.600,85.000 169.600 C 85.330 169.600,85.600 169.668,85.600 169.751 M97.200 190.769 C 97.200 190.972,96.750 191.673,96.200 192.327 C 95.419 193.255,95.200 193.963,95.200 195.558 C 95.200 197.037,95.046 197.600,94.643 197.600 C 93.974 197.600,93.600 198.460,93.600 200.000 C 93.600 201.540,93.974 202.400,94.643 202.400 C 95.048 202.400,95.200 202.972,95.200 204.500 C 95.201 206.163,95.409 206.842,96.200 207.762 C 97.278 209.015,97.457 209.600,96.763 209.600 C 96.522 209.600,96.241 209.278,96.138 208.884 C 96.035 208.491,95.558 207.996,95.078 207.784 C 94.402 207.487,94.134 206.905,93.893 205.211 C 93.716 203.971,93.325 202.878,92.990 202.691 C 92.158 202.225,92.162 197.773,92.996 197.306 C 93.329 197.120,93.708 196.097,93.856 194.986 C 94.153 192.757,97.200 188.914,97.200 190.769 M85.200 229.800 C 85.608 230.291,85.580 230.400,85.049 230.400 C 84.692 230.400,84.400 230.130,84.400 229.800 C 84.400 229.470,84.468 229.200,84.551 229.200 C 84.634 229.200,84.926 229.470,85.200 229.800 M90.400 235.000 C 90.808 235.491,90.780 235.600,90.249 235.600 C 89.892 235.600,89.600 235.330,89.600 235.000 C 89.600 234.670,89.668 234.400,89.751 234.400 C 89.834 234.400,90.126 234.670,90.400 235.000 M94.557 238.631 C 94.700 239.004,94.504 239.200,93.987 239.200 C 93.471 239.200,93.200 238.929,93.200 238.413 C 93.200 237.525,94.193 237.685,94.557 238.631 M252.833 260.944 C 252.925 261.024,254.530 261.181,256.400 261.294 C 258.272 261.408,259.261 261.364,258.600 261.197 C 257.386 260.891,252.526 260.678,252.833 260.944 M248.000 262.654 C 247.230 263.196,237.960 272.229,227.400 282.728 C 207.439 302.573,206.339 303.575,204.012 304.031 L 202.600 304.308 204.104 304.354 C 205.153 304.386,205.815 304.158,206.293 303.600 C 206.670 303.160,207.228 302.800,207.533 302.800 C 207.838 302.800,216.955 293.935,227.792 283.100 C 238.629 272.265,248.015 263.001,248.648 262.514 C 250.193 261.326,249.750 261.422,248.000 262.654 M261.645 262.944 C 266.438 266.604,268.420 271.522,267.065 276.394 C 266.158 279.658,266.263 280.360,267.216 277.400 C 268.983 271.911,267.352 267.067,262.415 263.136 C 261.354 262.291,260.350 261.600,260.185 261.600 C 260.020 261.600,260.677 262.205,261.645 262.944 M265.544 280.700 C 264.393 282.089,263.906 282.800,264.104 282.800 C 264.214 282.800,264.786 282.170,265.373 281.400 C 266.463 279.971,266.595 279.432,265.544 280.700 M261.167 285.253 C 260.195 286.161,259.760 286.706,260.200 286.464 C 261.023 286.009,263.491 283.600,263.133 283.600 C 263.023 283.600,262.138 284.344,261.167 285.253 M257.759 288.700 C 256.893 289.525,255.927 290.560,255.611 291.000 C 255.295 291.440,255.658 291.185,256.418 290.434 C 257.178 289.683,258.248 288.648,258.796 288.134 C 259.344 287.620,259.689 287.200,259.562 287.200 C 259.436 287.200,258.625 287.875,257.759 288.700 M253.601 292.707 C 251.922 294.544,251.389 295.471,252.744 294.200 C 253.855 293.156,255.049 291.586,254.714 291.607 C 254.651 291.611,254.150 292.106,253.601 292.707 M249.033 297.275 C 247.952 298.389,247.412 299.102,247.833 298.861 C 248.641 298.398,250.472 296.547,250.959 295.700 C 251.433 294.876,251.096 295.152,249.033 297.275 M245.167 301.253 C 244.195 302.161,243.760 302.706,244.200 302.464 C 245.023 302.009,247.491 299.600,247.133 299.600 C 247.023 299.600,246.138 300.344,245.167 301.253 M241.759 304.700 C 240.893 305.525,239.927 306.560,239.611 307.000 C 239.295 307.440,239.658 307.185,240.418 306.434 C 241.178 305.683,242.248 304.648,242.796 304.134 C 243.344 303.620,243.689 303.200,243.562 303.200 C 243.436 303.200,242.625 303.875,241.759 304.700 M198.900 304.687 C 199.505 304.778,200.495 304.778,201.100 304.687 C 201.705 304.595,201.210 304.520,200.000 304.520 C 198.790 304.520,198.295 304.595,198.900 304.687 M237.587 308.711 C 235.784 310.648,235.393 311.455,237.123 309.666 C 238.606 308.134,239.035 307.574,238.700 307.611 C 238.645 307.617,238.144 308.112,237.587 308.711 M231.247 315.013 C 229.182 317.096,227.602 318.800,227.736 318.800 C 228.019 318.800,235.200 311.670,235.200 311.389 C 235.200 311.040,235.014 311.211,231.247 315.013 " stroke="none" fill="#74b4ec" fill-rule="evenodd"></path><path id="path4" d="M196.400 58.355 C 195.630 58.529,194.280 59.097,193.400 59.617 C 191.386 60.809,60.976 191.370,60.171 193.000 C 59.845 193.660,59.316 194.650,58.995 195.200 C 58.188 196.583,58.188 203.417,58.995 204.800 C 59.316 205.350,59.845 206.340,60.171 207.000 C 61.133 208.948,191.456 339.239,193.794 340.591 C 196.782 342.319,203.220 342.318,206.206 340.590 C 208.694 339.150,266.552 281.474,266.988 280.000 C 267.150 279.450,267.580 278.550,267.942 278.000 C 268.849 276.622,268.863 270.971,267.963 269.582 C 267.613 269.042,267.210 268.128,267.068 267.551 C 266.845 266.643,264.685 264.176,262.140 261.922 C 261.718 261.548,260.660 261.064,259.787 260.846 C 258.914 260.627,257.448 260.239,256.528 259.983 C 255.172 259.605,254.493 259.631,252.928 260.123 C 251.868 260.456,250.510 260.837,249.910 260.970 C 247.894 261.415,246.248 262.939,226.660 282.500 C 215.920 293.225,206.952 302.000,206.730 302.000 C 206.508 302.000,205.869 302.360,205.309 302.800 C 203.800 303.987,196.200 303.987,194.691 302.800 C 194.131 302.360,193.477 302.000,193.237 302.000 C 192.650 302.000,98.000 207.554,98.000 206.968 C 98.000 206.715,97.600 206.000,97.112 205.379 C 95.782 203.688,95.782 196.312,97.112 194.621 C 97.600 194.000,98.000 193.284,98.000 193.030 C 98.000 192.442,192.646 98.000,193.236 98.000 C 193.477 98.000,194.131 97.640,194.691 97.200 C 195.564 96.513,196.314 96.400,200.000 96.400 C 203.686 96.400,204.436 96.513,205.309 97.200 C 205.869 97.640,206.514 98.000,206.743 98.000 C 206.972 98.000,215.937 106.773,226.665 117.496 C 246.212 137.033,247.886 138.584,249.910 139.030 C 250.510 139.163,251.833 139.532,252.850 139.851 C 254.929 140.503,260.591 139.408,262.153 138.053 C 264.557 135.967,266.844 133.360,267.068 132.449 C 267.210 131.872,267.613 130.958,267.963 130.418 C 268.885 128.995,268.844 123.744,267.900 122.411 C 267.515 121.867,267.200 121.117,267.200 120.745 C 267.200 119.332,209.610 61.387,206.295 59.465 C 204.224 58.264,199.269 57.708,196.400 58.355 M205.586 59.869 C 207.162 60.686,214.525 67.806,236.923 90.169 L 266.200 119.400 267.100 122.261 C 270.231 132.216,262.644 140.618,252.100 138.871 C 248.433 138.263,248.900 138.671,227.420 117.289 C 216.849 106.766,207.405 97.627,206.434 96.978 C 204.000 95.354,196.112 95.177,194.050 96.700 C 193.380 97.195,192.688 97.600,192.511 97.600 C 192.223 97.600,156.822 132.665,114.168 175.200 C 105.454 183.890,97.681 191.964,96.895 193.142 L 95.467 195.284 95.467 200.053 C 95.467 204.318,95.558 204.947,96.333 205.995 C 96.810 206.640,97.200 207.329,97.200 207.526 C 97.200 207.985,192.029 302.400,192.489 302.400 C 192.678 302.400,193.380 302.805,194.050 303.300 C 196.110 304.823,204.000 304.646,206.434 303.022 C 207.405 302.373,216.840 293.248,227.400 282.743 C 248.560 261.693,248.570 261.684,252.526 261.072 C 262.780 259.485,270.118 267.855,267.136 277.738 L 266.273 280.600 236.965 309.829 C 214.531 332.201,207.172 339.308,205.591 340.129 C 202.647 341.656,197.374 341.688,194.521 340.195 C 193.010 339.404,109.704 256.561,94.914 241.141 C 94.206 240.403,93.439 239.620,93.208 239.400 C 83.669 230.299,60.800 206.595,60.800 205.808 C 60.800 205.238,60.466 204.649,60.000 204.400 C 58.786 203.750,58.786 196.250,60.000 195.600 C 60.466 195.351,60.800 194.762,60.800 194.192 C 60.800 193.405,83.669 169.701,93.208 160.600 C 93.439 160.380,94.206 159.595,94.914 158.855 C 107.356 145.845,193.019 60.583,194.400 59.835 C 197.139 58.351,202.692 58.367,205.586 59.869 " stroke="none" fill="#88c0ec" fill-rule="evenodd"></path></g></svg>