<svg id="svg" version="1.1" xmlns="http://www.w3.org/2000/svg" xmlns:xlink="http://www.w3.org/1999/xlink" width="400" height="400" viewBox="0, 0, 400,400"><g id="svgg"><path id="path0" d="M196.400 19.613 C 193.479 20.224,187.752 23.284,171.000 33.187 C 169.240 34.228,164.560 36.928,160.600 39.188 C 156.640 41.447,152.325 43.940,151.012 44.727 C 149.699 45.514,147.449 46.815,146.012 47.618 C 143.564 48.987,136.220 53.231,127.000 58.604 C 124.800 59.886,121.380 61.867,119.400 63.005 C 117.420 64.143,114.000 66.126,111.800 67.410 C 109.600 68.695,106.630 70.407,105.200 71.216 C 103.770 72.025,100.890 73.675,98.800 74.883 C 96.710 76.091,91.940 78.845,88.200 81.002 C 84.460 83.160,79.780 85.864,77.800 87.011 C 69.615 91.754,66.064 93.801,63.600 95.196 C 47.274 104.445,45.135 106.149,42.974 111.626 L 41.800 114.600 41.687 197.600 C 41.607 256.850,41.701 281.361,42.017 283.261 C 43.067 289.580,46.171 293.403,53.800 297.773 C 56.440 299.286,60.040 301.365,61.800 302.394 C 63.560 303.422,66.980 305.402,69.400 306.794 C 74.505 309.729,78.849 312.243,89.600 318.486 C 91.690 319.700,97.090 322.811,101.600 325.401 C 106.110 327.990,110.790 330.692,112.000 331.406 C 113.210 332.120,117.890 334.820,122.400 337.406 C 126.910 339.992,131.590 342.689,132.800 343.398 C 134.010 344.108,136.260 345.414,137.800 346.300 C 161.264 359.808,167.386 363.338,173.000 366.591 C 174.980 367.739,177.860 369.400,179.400 370.284 C 180.940 371.168,183.789 372.829,185.732 373.976 C 198.063 381.258,201.913 381.246,214.400 373.893 C 216.270 372.792,219.060 371.168,220.600 370.284 C 222.140 369.400,225.020 367.740,227.000 366.595 C 228.980 365.449,231.860 363.786,233.400 362.898 C 234.940 362.011,241.420 358.276,247.800 354.598 C 254.180 350.921,260.660 347.186,262.200 346.300 C 263.740 345.414,265.990 344.108,267.200 343.398 C 268.410 342.689,273.090 339.992,277.600 337.406 C 282.110 334.820,286.790 332.120,288.000 331.406 C 289.210 330.692,293.890 327.990,298.400 325.401 C 307.009 320.458,312.721 317.152,316.400 314.982 C 317.610 314.268,321.570 311.980,325.200 309.897 C 328.830 307.813,333.420 305.170,335.400 304.021 C 337.380 302.873,341.590 300.463,344.755 298.667 C 353.479 293.715,356.489 290.348,357.824 284.052 C 358.488 280.919,358.688 119.572,358.032 115.600 C 356.691 107.471,354.623 105.520,336.400 95.196 C 333.916 93.789,330.074 91.574,322.200 87.010 C 320.220 85.862,315.540 83.161,311.800 81.008 C 308.060 78.855,303.290 76.101,301.200 74.890 C 299.110 73.678,296.230 72.025,294.800 71.216 C 293.370 70.407,290.400 68.695,288.200 67.410 C 286.000 66.126,282.534 64.115,280.498 62.941 C 273.583 58.956,269.412 56.541,263.000 52.808 C 256.232 48.868,251.564 46.176,248.070 44.200 C 244.030 41.915,233.612 35.894,229.000 33.179 C 205.481 19.334,202.893 18.257,196.400 19.613 M148.623 120.806 C 155.859 122.656,160.978 126.274,167.095 133.858 C 168.363 135.430,175.782 144.340,183.583 153.658 C 191.384 162.976,203.253 177.170,209.959 185.200 C 216.665 193.230,223.967 201.960,226.185 204.600 C 228.404 207.240,230.665 209.960,231.210 210.645 C 231.754 211.329,234.900 215.098,238.200 219.019 L 244.200 226.148 244.400 180.174 L 244.600 134.200 245.471 131.896 C 250.852 117.664,269.427 115.345,278.022 127.833 C 281.032 132.206,280.820 126.492,280.704 199.898 L 280.600 265.400 279.672 267.699 C 275.386 278.313,260.791 282.077,246.799 276.176 C 241.292 273.853,238.750 271.743,232.617 264.400 C 230.871 262.310,227.633 258.439,225.422 255.799 C 220.574 250.011,218.651 247.697,216.800 245.429 C 216.030 244.485,212.250 239.974,208.400 235.405 C 201.945 227.746,199.846 225.216,196.600 221.188 C 195.940 220.369,191.980 215.648,187.800 210.697 C 183.620 205.745,178.650 199.828,176.756 197.547 C 174.861 195.266,170.285 189.800,166.587 185.400 C 162.889 181.000,158.949 176.288,157.831 174.930 L 155.800 172.460 155.597 218.330 C 155.370 269.613,155.598 265.804,152.470 270.643 C 144.006 283.739,124.172 280.899,119.832 265.969 C 119.253 263.978,119.201 257.392,119.295 198.381 L 119.400 133.000 120.475 130.706 C 124.823 121.429,135.869 117.544,148.623 120.806 " stroke="none" fill="#0c944c" fill-rule="evenodd"></path><path id="path1" d="M0.000 200.000 L 0.000 400.000 200.000 400.000 L 400.000 400.000 400.000 200.000 L 400.000 0.000 200.000 0.000 L 0.000 0.000 0.000 200.000 M206.004 19.957 C 207.216 20.413,210.906 22.342,214.204 24.244 C 217.502 26.146,221.370 28.364,222.800 29.173 C 224.230 29.981,229.000 32.728,233.400 35.275 C 237.800 37.823,244.280 41.576,247.800 43.615 C 251.320 45.653,255.370 47.981,256.800 48.788 C 258.230 49.595,261.200 51.305,263.400 52.590 C 265.600 53.874,269.066 55.885,271.102 57.059 C 273.138 58.232,276.558 60.210,278.702 61.453 C 280.846 62.696,283.770 64.382,285.200 65.200 C 286.630 66.018,289.555 67.702,291.700 68.943 C 297.760 72.450,302.435 75.149,309.600 79.279 C 313.230 81.372,317.820 84.034,319.800 85.196 C 321.780 86.357,324.750 88.071,326.400 89.004 C 330.786 91.484,347.941 101.376,349.748 102.466 C 353.915 104.980,357.563 110.186,358.407 114.820 C 358.673 116.282,358.775 145.667,358.706 200.820 L 358.600 284.600 357.124 287.692 C 354.614 292.947,352.813 294.488,341.800 300.796 C 339.380 302.183,336.230 303.988,334.800 304.807 C 333.370 305.626,330.490 307.292,328.400 308.508 C 326.310 309.724,320.010 313.364,314.400 316.598 C 308.790 319.831,302.400 323.521,300.200 324.797 C 298.000 326.074,293.320 328.775,289.800 330.800 C 286.280 332.825,281.600 335.526,279.400 336.803 C 273.647 340.140,255.723 350.471,253.600 351.674 C 252.610 352.234,248.470 354.631,244.400 357.000 C 240.330 359.369,236.190 361.766,235.200 362.326 C 231.258 364.559,213.235 374.974,210.697 376.486 C 204.247 380.327,196.785 380.687,191.000 377.437 C 190.120 376.943,186.340 374.766,182.600 372.599 C 170.140 365.381,163.459 361.524,156.800 357.703 C 153.170 355.620,149.210 353.327,148.000 352.606 C 146.790 351.886,142.200 349.229,137.800 346.701 C 127.745 340.925,123.543 338.505,117.000 334.725 C 114.140 333.072,108.740 329.954,105.000 327.796 C 101.260 325.637,95.410 322.257,92.000 320.283 C 88.590 318.310,82.830 314.981,79.200 312.885 C 75.570 310.790,70.890 308.085,68.800 306.876 C 66.710 305.666,63.825 304.020,62.388 303.217 C 60.951 302.414,58.701 301.117,57.388 300.334 C 56.075 299.551,53.650 298.132,52.000 297.180 C 47.558 294.618,45.076 292.078,43.082 288.056 L 41.400 284.660 41.294 200.851 C 41.225 145.677,41.327 116.282,41.593 114.820 C 42.437 110.186,46.085 104.980,50.252 102.466 C 52.059 101.376,69.214 91.484,73.600 89.004 C 75.250 88.071,78.220 86.356,80.200 85.193 C 82.180 84.029,86.770 81.366,90.400 79.273 C 94.030 77.181,98.620 74.534,100.600 73.392 C 102.580 72.250,107.260 69.550,111.000 67.392 C 117.644 63.559,121.176 61.518,129.098 56.934 C 131.244 55.693,134.245 53.982,135.766 53.132 C 137.287 52.283,138.727 51.431,138.966 51.238 C 139.205 51.046,140.840 50.085,142.600 49.103 C 144.360 48.121,148.680 45.651,152.200 43.614 C 155.720 41.577,164.540 36.488,171.800 32.304 C 179.060 28.121,186.170 24.010,187.600 23.169 C 195.097 18.757,200.364 17.838,206.004 19.957 M133.400 120.725 C 125.993 122.928,120.830 128.129,119.636 134.590 C 119.064 137.683,119.026 260.302,119.596 263.800 C 122.530 281.809,148.209 283.790,154.096 266.462 L 155.000 263.800 155.200 217.600 L 155.400 171.400 157.600 174.034 C 158.810 175.483,166.550 184.736,174.800 194.595 C 188.674 211.176,190.886 213.830,194.800 218.583 C 195.570 219.518,201.078 226.115,207.040 233.242 C 213.002 240.369,220.885 249.800,224.559 254.200 C 239.160 271.687,239.074 271.598,244.257 274.522 C 258.086 282.323,274.803 278.681,279.694 266.800 L 280.600 264.600 280.715 201.000 C 280.839 132.781,280.876 134.112,278.756 129.914 C 271.398 115.338,250.813 117.251,245.557 133.000 C 245.129 134.282,244.981 143.805,244.811 180.955 L 244.600 227.310 239.159 220.755 C 233.831 214.338,217.048 194.266,199.439 173.252 C 194.578 167.450,190.060 162.025,189.400 161.195 C 183.436 153.695,162.032 128.558,160.701 127.490 C 152.970 121.286,141.263 118.385,133.400 120.725 " stroke="none" fill="#fbfcfb" fill-rule="evenodd"></path><path id="path2" d="M199.107 19.090 C 199.826 19.179,200.906 19.177,201.507 19.086 C 202.108 18.995,201.520 18.922,200.200 18.924 C 198.880 18.926,198.388 19.001,199.107 19.090 M41.396 199.400 C 41.396 245.380,41.443 264.249,41.500 241.332 C 41.557 218.414,41.557 180.794,41.500 157.732 C 41.443 134.669,41.396 153.420,41.396 199.400 M358.596 199.400 C 358.596 245.380,358.643 264.249,358.700 241.332 C 358.757 218.414,358.757 180.794,358.700 157.732 C 358.643 134.669,358.596 153.420,358.596 199.400 M138.700 119.882 C 139.195 119.978,140.005 119.978,140.500 119.882 C 140.995 119.787,140.590 119.709,139.600 119.709 C 138.610 119.709,138.205 119.787,138.700 119.882 M262.305 119.883 C 262.802 119.979,263.522 119.975,263.905 119.875 C 264.287 119.775,263.880 119.696,263.000 119.701 C 262.120 119.705,261.807 119.787,262.305 119.883 M249.775 125.300 L 248.600 126.600 249.900 125.425 C 250.615 124.779,251.200 124.194,251.200 124.125 C 251.200 123.816,250.870 124.088,249.775 125.300 M123.978 125.900 L 122.600 127.400 124.100 126.022 C 125.496 124.738,125.784 124.400,125.478 124.400 C 125.412 124.400,124.737 125.075,123.978 125.900 M235.200 267.325 C 235.200 267.394,235.785 267.979,236.500 268.625 L 237.800 269.800 236.625 268.500 C 235.530 267.288,235.200 267.016,235.200 267.325 M244.000 274.579 C 244.000 274.689,244.540 275.059,245.200 275.400 C 245.860 275.741,246.400 275.931,246.400 275.821 C 246.400 275.711,245.860 275.341,245.200 275.000 C 244.540 274.659,244.000 274.469,244.000 274.579 M256.500 278.676 C 256.885 278.776,257.515 278.776,257.900 278.676 C 258.285 278.575,257.970 278.493,257.200 278.493 C 256.430 278.493,256.115 278.575,256.500 278.676 " stroke="none" fill="#9cdcb3" fill-rule="evenodd"></path><path id="path3" d="" stroke="none" fill="#84bc97" fill-rule="evenodd"></path><path id="path4" d="M46.778 105.500 L 45.400 107.000 46.900 105.622 C 47.725 104.863,48.400 104.188,48.400 104.122 C 48.400 103.816,48.062 104.104,46.778 105.500 M352.800 105.400 C 353.546 106.170,354.247 106.800,354.357 106.800 C 354.467 106.800,353.946 106.170,353.200 105.400 C 352.454 104.630,351.753 104.000,351.643 104.000 C 351.533 104.000,352.054 104.630,352.800 105.400 M123.775 125.700 L 122.600 127.000 123.900 125.825 C 125.112 124.730,125.384 124.400,125.075 124.400 C 125.006 124.400,124.421 124.985,123.775 125.700 M244.498 181.149 C 244.405 223.883,244.365 226.072,243.700 225.571 C 243.036 225.071,243.036 225.083,243.690 225.798 C 244.070 226.213,244.476 226.457,244.592 226.341 C 244.708 226.225,244.757 205.896,244.700 181.165 L 244.597 136.200 244.498 181.149 M155.393 217.400 C 155.393 242.260,155.441 252.371,155.500 239.869 C 155.559 227.367,155.559 207.027,155.500 194.669 C 155.441 182.311,155.393 192.540,155.393 217.400 M237.600 270.200 C 238.346 270.970,239.047 271.600,239.157 271.600 C 239.267 271.600,238.746 270.970,238.000 270.200 C 237.254 269.430,236.553 268.800,236.443 268.800 C 236.333 268.800,236.854 269.430,237.600 270.200 M124.400 273.800 C 125.146 274.570,125.847 275.200,125.957 275.200 C 126.067 275.200,125.546 274.570,124.800 273.800 C 124.054 273.030,123.353 272.400,123.243 272.400 C 123.133 272.400,123.654 273.030,124.400 273.800 M135.907 279.090 C 136.626 279.179,137.706 279.177,138.307 279.086 C 138.908 278.995,138.320 278.922,137.000 278.924 C 135.680 278.926,135.188 279.001,135.907 279.090 M258.691 279.089 C 259.401 279.177,260.661 279.179,261.491 279.092 C 262.321 279.005,261.740 278.933,260.200 278.931 C 258.660 278.929,257.981 279.000,258.691 279.089 " stroke="none" fill="#74c294" fill-rule="evenodd"></path></g></svg>